<mxfile host="app.diagrams.net" modified="2023-05-26T15:20:21.084Z" agent="Mozilla/5.0 (Macintosh; Intel Mac OS X 10_15_7) AppleWebKit/605.1.15 (KHTML, like Gecko) Version/16.5 Safari/605.1.15" etag="aYjqAAPyZxcnUeh7jBMX" version="21.3.4" type="github">
  <diagram id="R2lEEEUBdFMjLlhIrx00" name="Page-1">
    <mxGraphModel dx="789" dy="515" grid="1" gridSize="10" guides="1" tooltips="1" connect="1" arrows="1" fold="1" page="1" pageScale="1" pageWidth="850" pageHeight="1100" math="0" shadow="0" extFonts="Permanent Marker^https://fonts.googleapis.com/css?family=Permanent+Marker">
      <root>
        <mxCell id="0" />
        <mxCell id="1" parent="0" />
        <mxCell id="d0LAj2tE1igsZWpV8SJc-7" value="1. 단백질 시퀀스 입력" style="edgeStyle=orthogonalEdgeStyle;rounded=0;orthogonalLoop=1;jettySize=auto;html=1;entryX=0;entryY=0.5;entryDx=0;entryDy=0;" edge="1" parent="1" source="d0LAj2tE1igsZWpV8SJc-4" target="d0LAj2tE1igsZWpV8SJc-5">
          <mxGeometry relative="1" as="geometry" />
        </mxCell>
        <mxCell id="d0LAj2tE1igsZWpV8SJc-4" value="user" style="rounded=1;whiteSpace=wrap;html=1;" vertex="1" parent="1">
          <mxGeometry x="330" y="220" width="100" height="60" as="geometry" />
        </mxCell>
        <mxCell id="d0LAj2tE1igsZWpV8SJc-9" value="2. 단백질 시퀀스 검색" style="edgeStyle=orthogonalEdgeStyle;rounded=0;orthogonalLoop=1;jettySize=auto;html=1;" edge="1" parent="1" source="d0LAj2tE1igsZWpV8SJc-5" target="d0LAj2tE1igsZWpV8SJc-6">
          <mxGeometry relative="1" as="geometry" />
        </mxCell>
        <mxCell id="d0LAj2tE1igsZWpV8SJc-13" style="edgeStyle=orthogonalEdgeStyle;rounded=0;orthogonalLoop=1;jettySize=auto;html=1;entryX=0.5;entryY=0;entryDx=0;entryDy=0;" edge="1" parent="1" source="d0LAj2tE1igsZWpV8SJc-5" target="d0LAj2tE1igsZWpV8SJc-4">
          <mxGeometry relative="1" as="geometry">
            <mxPoint x="420" y="210" as="targetPoint" />
            <Array as="points">
              <mxPoint x="650" y="200" />
              <mxPoint x="380" y="200" />
            </Array>
          </mxGeometry>
        </mxCell>
        <mxCell id="d0LAj2tE1igsZWpV8SJc-14" value="4. 알파폴드 결과값 출력" style="edgeLabel;html=1;align=center;verticalAlign=middle;resizable=0;points=[];" vertex="1" connectable="0" parent="d0LAj2tE1igsZWpV8SJc-13">
          <mxGeometry x="-0.232" y="-2" relative="1" as="geometry">
            <mxPoint as="offset" />
          </mxGeometry>
        </mxCell>
        <mxCell id="d0LAj2tE1igsZWpV8SJc-5" value="Konfold" style="rounded=1;whiteSpace=wrap;html=1;" vertex="1" parent="1">
          <mxGeometry x="590" y="220" width="120" height="60" as="geometry" />
        </mxCell>
        <mxCell id="d0LAj2tE1igsZWpV8SJc-11" style="edgeStyle=orthogonalEdgeStyle;rounded=0;orthogonalLoop=1;jettySize=auto;html=1;entryX=1;entryY=0.5;entryDx=0;entryDy=0;" edge="1" parent="1" source="d0LAj2tE1igsZWpV8SJc-6" target="d0LAj2tE1igsZWpV8SJc-5">
          <mxGeometry relative="1" as="geometry">
            <Array as="points">
              <mxPoint x="760" y="360" />
              <mxPoint x="760" y="250" />
            </Array>
          </mxGeometry>
        </mxCell>
        <mxCell id="d0LAj2tE1igsZWpV8SJc-12" value="3. 단백질 3d 구조 결과&amp;nbsp;" style="edgeLabel;html=1;align=center;verticalAlign=middle;resizable=0;points=[];" vertex="1" connectable="0" parent="d0LAj2tE1igsZWpV8SJc-11">
          <mxGeometry x="-0.1299" y="2" relative="1" as="geometry">
            <mxPoint as="offset" />
          </mxGeometry>
        </mxCell>
        <mxCell id="d0LAj2tE1igsZWpV8SJc-6" value="AlphaFold" style="rounded=1;whiteSpace=wrap;html=1;" vertex="1" parent="1">
          <mxGeometry x="590" y="340" width="110" height="60" as="geometry" />
        </mxCell>
        <mxCell id="d0LAj2tE1igsZWpV8SJc-15" value="1. 단백질 시퀀스 입력" style="edgeStyle=orthogonalEdgeStyle;rounded=0;orthogonalLoop=1;jettySize=auto;html=1;entryX=0;entryY=0.5;entryDx=0;entryDy=0;" edge="1" parent="1" source="d0LAj2tE1igsZWpV8SJc-16" target="d0LAj2tE1igsZWpV8SJc-20">
          <mxGeometry relative="1" as="geometry" />
        </mxCell>
        <mxCell id="d0LAj2tE1igsZWpV8SJc-16" value="user" style="rounded=1;whiteSpace=wrap;html=1;" vertex="1" parent="1">
          <mxGeometry x="340" y="499.94" width="100" height="60" as="geometry" />
        </mxCell>
        <mxCell id="d0LAj2tE1igsZWpV8SJc-17" value="2. 단백질 시퀀스 검색" style="edgeStyle=orthogonalEdgeStyle;rounded=0;orthogonalLoop=1;jettySize=auto;html=1;" edge="1" parent="1" source="d0LAj2tE1igsZWpV8SJc-20" target="d0LAj2tE1igsZWpV8SJc-23">
          <mxGeometry relative="1" as="geometry" />
        </mxCell>
        <mxCell id="d0LAj2tE1igsZWpV8SJc-18" style="edgeStyle=orthogonalEdgeStyle;rounded=0;orthogonalLoop=1;jettySize=auto;html=1;entryX=0.5;entryY=0;entryDx=0;entryDy=0;" edge="1" parent="1" source="d0LAj2tE1igsZWpV8SJc-20" target="d0LAj2tE1igsZWpV8SJc-16">
          <mxGeometry relative="1" as="geometry">
            <mxPoint x="430" y="489.94" as="targetPoint" />
            <Array as="points">
              <mxPoint x="660" y="479.94" />
              <mxPoint x="390" y="479.94" />
            </Array>
          </mxGeometry>
        </mxCell>
        <mxCell id="d0LAj2tE1igsZWpV8SJc-19" value="4. 단백질 3D visualization 출력" style="edgeLabel;html=1;align=center;verticalAlign=middle;resizable=0;points=[];" vertex="1" connectable="0" parent="d0LAj2tE1igsZWpV8SJc-18">
          <mxGeometry x="-0.232" y="-2" relative="1" as="geometry">
            <mxPoint as="offset" />
          </mxGeometry>
        </mxCell>
        <mxCell id="d0LAj2tE1igsZWpV8SJc-20" value="Konfold" style="rounded=1;whiteSpace=wrap;html=1;" vertex="1" parent="1">
          <mxGeometry x="600" y="499.94" width="120" height="60" as="geometry" />
        </mxCell>
        <mxCell id="d0LAj2tE1igsZWpV8SJc-21" style="edgeStyle=orthogonalEdgeStyle;rounded=0;orthogonalLoop=1;jettySize=auto;html=1;entryX=1;entryY=0.5;entryDx=0;entryDy=0;" edge="1" parent="1" source="d0LAj2tE1igsZWpV8SJc-23" target="d0LAj2tE1igsZWpV8SJc-20">
          <mxGeometry relative="1" as="geometry">
            <Array as="points">
              <mxPoint x="770" y="639.94" />
              <mxPoint x="770" y="529.94" />
            </Array>
          </mxGeometry>
        </mxCell>
        <mxCell id="d0LAj2tE1igsZWpV8SJc-22" value="3. 3D 단백질 visualization 결과 전달" style="edgeLabel;html=1;align=center;verticalAlign=middle;resizable=0;points=[];" vertex="1" connectable="0" parent="d0LAj2tE1igsZWpV8SJc-21">
          <mxGeometry x="-0.1299" y="2" relative="1" as="geometry">
            <mxPoint as="offset" />
          </mxGeometry>
        </mxCell>
        <mxCell id="d0LAj2tE1igsZWpV8SJc-23" value="server" style="rounded=1;whiteSpace=wrap;html=1;" vertex="1" parent="1">
          <mxGeometry x="600" y="619.94" width="110" height="60" as="geometry" />
        </mxCell>
        <mxCell id="d0LAj2tE1igsZWpV8SJc-29" value="1. 단백질 구조 예측 참고 자료 요청" style="edgeStyle=orthogonalEdgeStyle;rounded=0;orthogonalLoop=1;jettySize=auto;html=1;entryX=0;entryY=0.5;entryDx=0;entryDy=0;" edge="1" parent="1" source="d0LAj2tE1igsZWpV8SJc-30" target="d0LAj2tE1igsZWpV8SJc-33">
          <mxGeometry relative="1" as="geometry" />
        </mxCell>
        <mxCell id="d0LAj2tE1igsZWpV8SJc-30" value="user" style="rounded=1;whiteSpace=wrap;html=1;" vertex="1" parent="1">
          <mxGeometry x="880" y="239.94" width="100" height="60" as="geometry" />
        </mxCell>
        <mxCell id="d0LAj2tE1igsZWpV8SJc-31" style="edgeStyle=orthogonalEdgeStyle;rounded=0;orthogonalLoop=1;jettySize=auto;html=1;entryX=0.5;entryY=0;entryDx=0;entryDy=0;" edge="1" parent="1" source="d0LAj2tE1igsZWpV8SJc-33" target="d0LAj2tE1igsZWpV8SJc-30">
          <mxGeometry relative="1" as="geometry">
            <mxPoint x="970" y="229.94" as="targetPoint" />
            <Array as="points">
              <mxPoint x="1200" y="219.94" />
              <mxPoint x="930" y="219.94" />
            </Array>
          </mxGeometry>
        </mxCell>
        <mxCell id="d0LAj2tE1igsZWpV8SJc-32" value="2. 참고자료 출력" style="edgeLabel;html=1;align=center;verticalAlign=middle;resizable=0;points=[];" vertex="1" connectable="0" parent="d0LAj2tE1igsZWpV8SJc-31">
          <mxGeometry x="-0.232" y="-2" relative="1" as="geometry">
            <mxPoint x="-31" y="2" as="offset" />
          </mxGeometry>
        </mxCell>
        <mxCell id="d0LAj2tE1igsZWpV8SJc-33" value="Konfold" style="rounded=1;whiteSpace=wrap;html=1;" vertex="1" parent="1">
          <mxGeometry x="1140" y="239.94" width="120" height="60" as="geometry" />
        </mxCell>
      </root>
    </mxGraphModel>
  </diagram>
</mxfile>
